<?xml version="1.0" encoding="UTF-8" standalone="no"?>
<svg
   width="63.999996"
   height="63.999996"
   viewBox="0 0 16.93292 16.93316"
   version="1.1"
   id="svg2"
   sodipodi:docname="favicon.svg"
   inkscape:version="1.4 (e7c3feb1, 2024-10-09)"
   xmlns:inkscape="http://www.inkscape.org/namespaces/inkscape"
   xmlns:sodipodi="http://sodipodi.sourceforge.net/DTD/sodipodi-0.dtd"
   xmlns="http://www.w3.org/2000/svg"
   xmlns:svg="http://www.w3.org/2000/svg">
  <defs
     id="defs2" />
  <sodipodi:namedview
     id="namedview2"
     pagecolor="#ffffff"
     bordercolor="#000000"
     borderopacity="0.25"
     inkscape:showpageshadow="2"
     inkscape:pageopacity="0.0"
     inkscape:pagecheckerboard="0"
     inkscape:deskcolor="#d1d1d1"
     inkscape:zoom="3.3387097"
     inkscape:cx="7.6376812"
     inkscape:cy="30.850242"
     inkscape:window-width="1200"
     inkscape:window-height="977"
     inkscape:window-x="2160"
     inkscape:window-y="25"
     inkscape:window-maximized="0"
     inkscape:current-layer="svg2" />
  <rect
     style="fill:#ffffff;fill-opacity:1;stroke-width:2.99696;stroke-linecap:round;stroke-linejoin:round"
     id="rect2"
     width="16.933161"
     height="16.933161"
     x="-0.00010731839"
     y="0"
     rx="2.0624774"
     ry="2.0624783" />
  <g
     style="stroke-width:10.7224"
     id="g2"
     transform="matrix(0.96772409,0,0,0.96772409,1.1394406,0.52978742)">
    <path
       style="fill:#2d172c;fill-opacity:1;stroke-width:4.25546;stroke-linecap:round;stroke-linejoin:round"
       d="m 584.266,-241.545 c -6.179,0 -11.152,6.122 -11.152,13.725 v 24.51 c 0,7.603 4.973,13.723 11.152,13.723 6.178,0 11.153,-6.12 11.153,-13.724 v -24.509 c 0,-7.603 -4.975,-13.725 -11.153,-13.725 z m 76.872,0 c -6.178,0 -11.152,6.122 -11.152,13.725 v 24.51 c 0,7.603 4.974,13.723 11.152,13.723 6.18,0 11.154,-6.12 11.154,-13.724 v -24.509 c 0,-7.603 -4.975,-13.725 -11.154,-13.725 z m -97.444,25.49 c -8.83,0 -15.939,7.214 -15.939,16.175 v 20.587 h 149.894 v -20.587 c 0,-8.961 -7.109,-16.176 -15.939,-16.176 h -5.512 v 12.745 c 0,9.308 -6.299,17.632 -15.058,17.632 -8.76,0 -15.06,-8.324 -15.06,-17.632 v -12.745 h -46.754 v 12.744 c 0,9.308 -6.3,17.633 -15.059,17.633 -8.76,0 -15.061,-8.325 -15.061,-17.633 v -12.744 z m -15.939,41.993 v 94.766 c 0,8.962 7.109,16.175 15.94,16.175 H 681.71 c 8.83,0 15.94,-7.213 15.94,-16.175 v -94.766 z m 27.433,15.357 h 8.476 c 2.842,0 5.132,2.514 5.132,5.637 v 9.314 c 0,3.123 -2.29,5.637 -5.132,5.637 h -8.476 c -2.842,0 -5.13,-2.514 -5.13,-5.637 v -9.314 c 0,-3.123 2.288,-5.637 5.13,-5.637 z m 28.849,0 h 8.476 c 2.842,0 5.131,2.514 5.131,5.637 v 9.314 c 0,3.123 -2.29,5.637 -5.131,5.637 h -8.476 c -2.842,0 -5.13,-2.514 -5.13,-5.637 v -9.314 c 0,-3.123 2.288,-5.637 5.13,-5.637 z m 28.848,0 h 8.477 c 2.843,0 5.13,2.514 5.13,5.637 v 9.314 c 0,3.123 -2.287,5.637 -5.13,5.637 h -8.477 c -2.842,0 -5.13,-2.514 -5.13,-5.637 v -9.314 c 0,-3.123 2.288,-5.637 5.13,-5.637 z m -57.697,30.391 h 8.476 c 2.842,0 5.132,2.514 5.132,5.637 v 9.313 c 0,3.123 -2.29,5.637 -5.132,5.637 h -8.476 c -2.842,0 -5.13,-2.514 -5.13,-5.637 v -9.313 c 0,-3.123 2.288,-5.637 5.13,-5.637 z m 28.849,0 h 8.476 c 2.842,0 5.131,2.514 5.131,5.637 v 9.313 c 0,3.123 -2.29,5.637 -5.131,5.637 h -8.476 c -2.842,0 -5.13,-2.514 -5.13,-5.637 v -9.313 c 0,-3.123 2.288,-5.637 5.13,-5.637 z m 28.848,0 h 8.477 c 2.843,0 5.13,2.514 5.13,5.637 v 9.313 c 0,3.123 -2.287,5.637 -5.13,5.637 h -8.477 c -2.842,0 -5.13,-2.514 -5.13,-5.637 v -9.313 c 0,-3.123 2.288,-5.637 5.13,-5.637 z m 28.85,0 h 8.476 c 2.842,0 5.13,2.514 5.13,5.637 v 9.313 c 0,3.123 -2.288,5.637 -5.13,5.637 h -8.476 c -2.842,0 -5.131,-2.514 -5.131,-5.637 v -9.313 c 0,-3.123 2.289,-5.637 5.13,-5.637 z m -86.547,30.392 h 8.476 c 2.842,0 5.132,2.514 5.132,5.637 v 9.313 c 0,3.123 -2.29,5.637 -5.132,5.637 h -8.476 c -2.842,0 -5.13,-2.514 -5.13,-5.637 v -9.313 c 0,-3.123 2.288,-5.637 5.13,-5.637 z m 28.849,0 h 8.476 c 2.842,0 5.131,2.514 5.131,5.637 v 9.313 c 0,3.123 -2.29,5.637 -5.131,5.637 h -8.476 c -2.842,0 -5.13,-2.514 -5.13,-5.637 v -9.313 c 0,-3.123 2.288,-5.637 5.13,-5.637 z m 28.848,0 h 8.477 c 2.843,0 5.13,2.514 5.13,5.637 v 9.313 c 0,3.123 -2.287,5.637 -5.13,5.637 h -8.477 c -2.842,0 -5.13,-2.514 -5.13,-5.637 v -9.313 c 0,-3.123 2.288,-5.637 5.13,-5.637 z m 28.85,0 h 8.476 c 2.842,0 5.13,2.514 5.13,5.637 v 9.313 c 0,3.123 -2.288,5.637 -5.13,5.637 h -8.476 c -2.842,0 -5.131,-2.514 -5.131,-5.637 v -9.313 c 0,-3.123 2.289,-5.637 5.13,-5.637 z"
       transform="matrix(0.10102,0,0,0.09194,-55.334,22.207)"
       id="path1" />
    <path
       style="fill:#fabb49;fill-opacity:1;stroke-width:88.5527;stroke-linecap:round;stroke-linejoin:round"
       transform="matrix(0.033,-0.01443,0.01254,0.03158,-5.913,22.029)"
       d="m 605.854,-108.509 c -2.57,0.551 -16.396,-17.303 -18.798,-18.368 -2.403,-1.065 -24.917,0.686 -26.235,-1.588 -1.318,-2.274 11.39,-20.94 11.66,-23.555 0.27,-2.614 -8.352,-23.485 -6.596,-25.441 1.755,-1.956 23.435,4.362 26.004,3.81 2.57,-0.55 19.755,-15.2 22.158,-14.135 2.403,1.065 3.094,23.636 4.412,25.91 1.318,2.274 20.561,14.09 20.29,16.705 -0.27,2.614 -21.522,10.246 -23.277,12.202 -1.756,1.957 -7.048,23.91 -9.618,24.46 z"
       id="path2" />
  </g>
</svg>
