<svg width="57.231" height="62" viewBox="0 0 15.142 16.404" xmlns="http://www.w3.org/2000/svg">
    <g style="stroke-width:10.3763">
        <path style="fill:#2d172c;fill-opacity:1;stroke-width:4.11809;stroke-linecap:round;stroke-linejoin:round" d="M584.266-241.545c-6.179 0-11.152 6.122-11.152 13.725v24.51c0 7.603 4.973 13.723 11.152 13.723 6.178 0 11.153-6.12 11.153-13.724v-24.509c0-7.603-4.975-13.725-11.153-13.725zm76.872 0c-6.178 0-11.152 6.122-11.152 13.725v24.51c0 7.603 4.974 13.723 11.152 13.723 6.18 0 11.154-6.12 11.154-13.724v-24.509c0-7.603-4.975-13.725-11.154-13.725zm-97.444 25.49c-8.83 0-15.939 7.214-15.939 16.175v20.587h149.894v-20.587c0-8.961-7.109-16.176-15.939-16.176h-5.512v12.745c0 9.308-6.299 17.632-15.058 17.632-8.76 0-15.06-8.324-15.06-17.632v-12.745h-46.754v12.744c0 9.308-6.3 17.633-15.059 17.633-8.76 0-15.061-8.325-15.061-17.633v-12.744zm-15.939 41.993v94.766c0 8.962 7.109 16.175 15.94 16.175H681.71c8.83 0 15.94-7.213 15.94-16.175v-94.766zm27.433 15.357h8.476c2.842 0 5.132 2.514 5.132 5.637v9.314c0 3.123-2.29 5.637-5.132 5.637h-8.476c-2.842 0-5.13-2.514-5.13-5.637v-9.314c0-3.123 2.288-5.637 5.13-5.637zm28.849 0h8.476c2.842 0 5.131 2.514 5.131 5.637v9.314c0 3.123-2.29 5.637-5.131 5.637h-8.476c-2.842 0-5.13-2.514-5.13-5.637v-9.314c0-3.123 2.288-5.637 5.13-5.637zm28.848 0h8.477c2.843 0 5.13 2.514 5.13 5.637v9.314c0 3.123-2.287 5.637-5.13 5.637h-8.477c-2.842 0-5.13-2.514-5.13-5.637v-9.314c0-3.123 2.288-5.637 5.13-5.637zm-57.697 30.391h8.476c2.842 0 5.132 2.514 5.132 5.637v9.313c0 3.123-2.29 5.637-5.132 5.637h-8.476c-2.842 0-5.13-2.514-5.13-5.637v-9.313c0-3.123 2.288-5.637 5.13-5.637zm28.849 0h8.476c2.842 0 5.131 2.514 5.131 5.637v9.313c0 3.123-2.29 5.637-5.131 5.637h-8.476c-2.842 0-5.13-2.514-5.13-5.637v-9.313c0-3.123 2.288-5.637 5.13-5.637zm28.848 0h8.477c2.843 0 5.13 2.514 5.13 5.637v9.313c0 3.123-2.287 5.637-5.13 5.637h-8.477c-2.842 0-5.13-2.514-5.13-5.637v-9.313c0-3.123 2.288-5.637 5.13-5.637zm28.85 0h8.476c2.842 0 5.13 2.514 5.13 5.637v9.313c0 3.123-2.288 5.637-5.13 5.637h-8.476c-2.842 0-5.131-2.514-5.131-5.637v-9.313c0-3.123 2.289-5.637 5.13-5.637zm-86.547 30.392h8.476c2.842 0 5.132 2.514 5.132 5.637v9.313c0 3.123-2.29 5.637-5.132 5.637h-8.476c-2.842 0-5.13-2.514-5.13-5.637v-9.313c0-3.123 2.288-5.637 5.13-5.637zm28.849 0h8.476c2.842 0 5.131 2.514 5.131 5.637v9.313c0 3.123-2.29 5.637-5.131 5.637h-8.476c-2.842 0-5.13-2.514-5.13-5.637v-9.313c0-3.123 2.288-5.637 5.13-5.637zm28.848 0h8.477c2.843 0 5.13 2.514 5.13 5.637v9.313c0 3.123-2.287 5.637-5.13 5.637h-8.477c-2.842 0-5.13-2.514-5.13-5.637v-9.313c0-3.123 2.288-5.637 5.13-5.637zm28.85 0h8.476c2.842 0 5.13 2.514 5.13 5.637v9.313c0 3.123-2.288 5.637-5.13 5.637h-8.476c-2.842 0-5.131-2.514-5.131-5.637v-9.313c0-3.123 2.289-5.637 5.13-5.637z" transform="matrix(.10102 0 0 .09194 -55.334 22.207)"/>
        <path style="fill:#fabb49;fill-opacity:1;stroke-width:85.6936;stroke-linecap:round;stroke-linejoin:round" transform="matrix(.033 -.01443 .01254 .03158 -5.913 22.029)" d="M605.854-108.509c-2.57.551-16.396-17.303-18.798-18.368-2.403-1.065-24.917.686-26.235-1.588-1.318-2.274 11.39-20.94 11.66-23.555.27-2.614-8.352-23.485-6.596-25.441 1.755-1.956 23.435 4.362 26.004 3.81 2.57-.55 19.755-15.2 22.158-14.135 2.403 1.065 3.094 23.636 4.412 25.91 1.318 2.274 20.561 14.09 20.29 16.705-.27 2.614-21.522 10.246-23.277 12.202-1.756 1.957-7.048 23.91-9.618 24.46z"/>
    </g>
</svg>
